<?xml version="1.0" encoding="UTF-8"?> <svg xmlns="http://www.w3.org/2000/svg" id="Eurex" viewBox="0 0 960 300"><defs><style>.cls-1{fill:#7cc141;}.cls-2{fill:#036;}</style></defs><g id="g2210"><path id="path2446" class="cls-1" d="M354.5,26.042l81.823,81.583a19.642,19.642,0,0,1-27.846,27.709l-.052.086L326.605,53.837a19.691,19.691,0,0,1,27.9-27.795"></path><path id="path2448" class="cls-1" d="M354.5,274.051l81.823-81.583a19.643,19.643,0,0,0-27.846-27.709h-.052l-81.823,81.583a19.661,19.661,0,0,0,27.9,27.709"></path><path id="path2450" class="cls-2" d="M573.422,53.751l-81.592,81.84a19.66,19.66,0,0,1-27.726-27.88h-.052l81.6-81.841a19.677,19.677,0,0,1,27.77,27.881"></path><path id="path2452" class="cls-2" d="M573.422,246.342,491.83,164.5A19.661,19.661,0,0,0,464.1,192.382l-.052.086,81.6,81.84a19.707,19.707,0,0,0,27.77-27.966"></path><path id="path2454" class="cls-2" d="M100,23.983H244.4c11.512,0,20.846,8.579,20.846,19.13,0,10.466-9.334,19.045-20.846,19.045H141.555V236.733H244.4c11.512,0,20.846,8.579,20.846,19.131s-9.334,19.044-20.846,19.044H100V23.983"></path><path id="path2456" class="cls-2" d="M378.926,148.888c0-10.466-9.05-18.959-20.211-18.959H181.446v37.918H358.852c11.1-.086,20.074-8.493,20.074-18.959"></path><path id="path2458" class="cls-2" d="M860,133.189l-7.978-4.461L841.47,141.854l-10.552-13.126-7.978,4.461,12.7,15.871-12.7,15.956,8.236,4.032,10.294-12.782,10.294,12.782L860,165.016,847.218,149.06,860,133.189"></path><path id="path2460" class="cls-2" d="M570.35,143.569c.421-3.689,3.947-8.149,8.562-8.149,5.379,0,7.472,4.117,7.729,8.149ZM596.378,150c0-13.125-5.542-21.017-17.466-21.017-12.336,0-19.294,10.037-19.294,20.074,0,11.838,7.713,19.816,18.453,19.816a24.132,24.132,0,0,0,17.218-7.463l-5.877-4.8c-2.608,2.488-5.8,4.89-9.831,4.89-7.052,0-9.651-6.263-9.737-11.5h26.534"></path><path id="path2462" class="cls-2" d="M666.38,167.847H656.171v-4.633H656a18.387,18.387,0,0,1-13.126,5.662c-9.35,0-11.752-5.49-11.752-12.868,0-2.316.085-4.632.085-7.034l.258-18.959h10.208l-.085,9.437c-.086,5.49-.172,10.809-.172,14.926,0,4.375,1.287,6.177,5.576,6.177,3.174,0,6.777-2.659,9.351-4.89l.171-25.65h10.209l-.343,37.832"></path><path id="path2464" class="cls-2" d="M705.413,130.015h10.208v6.949l.086.086c1.973-4.29,4.633-7.893,9.78-8.064a18.855,18.855,0,0,1,3.088.343l-1.716,8.836a12.416,12.416,0,0,0-2.4-.343c-3.946,0-6.863,2.659-8.922,6.6l-.257,23.42H704.984l.429-37.832"></path><path id="path2466" class="cls-2" d="M766.75,143.569c.429-3.689,3.946-8.149,8.493-8.149,5.4,0,7.463,4.117,7.721,8.149ZM792.743,150c0-13.125-5.576-21.017-17.5-21.017-12.268,0-19.216,10.037-19.216,20.074,0,11.838,7.635,19.816,18.444,19.816a24.052,24.052,0,0,0,17.157-7.463l-5.833-4.8c-2.66,2.488-5.834,4.89-9.866,4.89-7.034,0-9.608-6.263-9.694-11.5h26.508"></path></g></svg> 