<?xml version="1.0" encoding="UTF-8"?> <svg xmlns="http://www.w3.org/2000/svg" width="174" height="32" viewBox="0 0 174 32" class="Logo Logo--LogoSwissquote"><path fill="none" d="M0 0h28v32H0z"></path><path d="M14 2c7.732 0 14 6.268 14 14s-6.268 14-14 14S0 23.732 0 16A13.918 13.918 0 0114 2zm-6.985 8.16v2.318h13.97v-2.32H7.015zm13.97 11.68v-7.014H7.015v7.015h2.32v-2.648c0-.753.18-1.175.45-1.476a1.753 1.753 0 012.589 0c.27.3.452.723.452 1.476v2.65h2.348v-2.65c0-.753.18-1.175.452-1.476a1.753 1.753 0 012.59 0c.27.3.452.723.452 1.476v2.65h2.318z" fill="#FA5B35"></path><path d="M37.026 10.054c0 2.543 3.632 3.057 6.357 4.63 1.695.97 3.087 2.544 3.087 5.208 0 3.814-3.118 6.205-6.568 6.205-3.45 0-5.933-1.665-6.902-2.724l1.362-2.876h.12a7.399 7.399 0 005.177 2.18c1.483 0 3.087-.878 3.087-2.603 0-2.573-3.632-3.088-6.357-4.662-1.695-.97-3.087-2.543-3.087-5.207C33.303 6.39 36.45 4 39.963 4a9.567 9.567 0 016.507 2.573L45.108 9.45h-.12c-1.182-1.06-2.665-2.03-4.723-2.03-1.635 0-3.24.878-3.24 2.634zm9.99 3.48h3.57l2.12 6.146h.12l2.998-8.566h2.42l3.15 8.657h.12l3.028-8.656h3.39l-5.176 14.53h-2.36l-3.33-9.142h-.122l-3.21 9.14h-2.42l-4.3-12.107zm22.4-8.475h3.6v3.48h-3.6V5.06zm.06 6.054h3.48v14.53h-3.48v-14.53zM81.07 26.097a7.96 7.96 0 01-5.45-2.12l.97-2.602h.12c1.09.97 2.482 1.726 4.087 1.726 1.21 0 1.998-.514 1.998-1.422 0-.94-1-1.302-2.24-1.695-1.998-.636-4.632-1.605-4.632-4.632 0-2.783 2.18-4.69 5.298-4.69a7.896 7.896 0 014.844 1.725l-.97 2.633h-.12c-1.03-.817-2.36-1.362-3.48-1.362-1.363 0-2.15.515-2.15 1.423 0 .937 1 1.3 2.24 1.694 1.997.636 4.63 1.604 4.63 4.63 0 2.786-2.178 4.693-5.145 4.693zm12.44 0a7.962 7.962 0 01-5.45-2.12l.97-2.602h.12c1.09.97 2.483 1.726 4.088 1.726 1.21 0 1.998-.514 1.998-1.422 0-.94-1-1.302-2.24-1.695-1.998-.636-4.632-1.605-4.632-4.632 0-2.783 2.18-4.69 5.298-4.69a7.897 7.897 0 014.843 1.725l-.97 2.633h-.12c-1.03-.817-2.36-1.362-3.48-1.362-1.363 0-2.15.515-2.15 1.423 0 .937 1 1.3 2.24 1.694 1.998.636 4.63 1.604 4.63 4.63 0 2.786-2.178 4.693-5.145 4.693zm21.16-14.983V32h-3.482v-7.416c-1.05.96-2.42 1.5-3.844 1.513-4.117 0-6.75-3.178-6.75-7.567 0-4.117 2.815-7.87 7.113-7.87 1.335.02 2.625.49 3.663 1.33h.12v-.876h3.18zm-3.482 3.783a4.534 4.534 0 00-2.936-1.06c-2.482 0-4.087 1.938-4.087 4.663 0 2.45 1.393 4.42 3.875 4.42a4.249 4.249 0 003.148-1.363v-6.66zm9.898 4.904c0 1.272.212 1.817.575 2.27a2.649 2.649 0 003.997 0c.363-.453.575-.998.575-2.27v-8.686h3.48v8.324c0 2.36-.634 3.844-1.724 4.904a6.208 6.208 0 01-4.48 1.755 5.914 5.914 0 01-4.238-1.695c-1.06-1.06-1.665-2.573-1.665-4.964v-8.324h3.48V19.8zm11.02-1.27c0-4.632 3.147-7.87 7.566-7.87 4.42 0 7.568 3.238 7.568 7.567 0 4.63-3.148 7.87-7.568 7.87s-7.567-3.24-7.567-7.567zm7.566-4.692c-2.33 0-3.995 1.967-3.995 4.54s1.665 4.54 3.995 4.54 3.996-1.967 3.996-4.54-1.665-4.54-3.996-4.54zm19.373 8.96v2.694a7.938 7.938 0 01-3.118.605c-1.543 0-2.694-.454-3.48-1.24-.848-.848-1.272-2.09-1.272-4.3v-6.416h-3.33v-3.026h3.33V6.27h3.48v4.844h4.39v3.027h-4.39v6.872c0 .757.152 1.18.395 1.453.423.484 1.12.605 1.876.605a8.215 8.215 0 001.998-.272h.12zm8.537 3.3c-4.238 0-7.417-2.997-7.417-7.568 0-4.178 2.543-7.87 7.053-7.87 3.845 0 6.418 3.057 6.418 7.264v1.15h-9.838c.09 2.27 1.665 3.966 3.965 3.966 1.483 0 2.846-.605 4.087-1.635h.12l1.302 2.422c-1.362 1.453-3.39 2.27-5.69 2.27zm2.573-9.748a2.79 2.79 0 00-2.876-2.724c-1.757 0-2.937 1.18-3.3 2.724h6.175z" fill="#323232"></path></svg> 